#!OML:ASF X:\für Bonn\!DataBase\2005_08_12_Daniel\c3d\Daniel.ASF
:FULLY-SPECIFIED
:DEGREES
456
root 19.632 1.31226 0.622313 -1693.95 260.231 138.68
lowerback 26.5491 -3.4153 1.70211
upperback 6.76689 -4.77773 -2.72727
thorax -7.51502 -2.59853 -2.40591
lowerneck -11.7084 1.4832 -4.20434
upperneck 2.90895 2.47819 0.823638
head 2.93566 1.18019 1.16146
rclavicle 4.73108e-014 -5.22369e-014
rhumerus -405.526 -12.5683 295.166
rradius 12.674
rwrist 63.5607
rhand -8.70109 739.335
rfingers 7.12502
rthumb 17.2341 710.079
lclavicle 4.73108e-014 -5.22369e-014
lhumerus -587.793 154.488 -486.965
lradius 17.1615
lwrist -55.7849
lhand -3.79914 -725.266
lfingers 7.12502
lthumb 21.9468 23.5095
rfemur -504.463 -186.546 558.042
rtibia -6.36111e-014
rfoot -35.2734 -31.7471
rtoes 36.0272
lfemur 16.0674 706.304 -25.9105
ltibia 39.5725
lfoot 137.147 561.455
ltoes 26.6151
457
root 19.6241 1.3074 0.61985 -1694.39 260.227 139.109
lowerback 26.6024 -3.38815 1.60496
upperback 6.76359 -4.76813 -2.71618
thorax -7.5365 -2.5931 -2.33863
lowerneck -11.8076 1.48582 -4.27
upperneck 3.01331 2.49523 0.853839
head 2.98926 1.18749 1.18745
rclavicle -3.4191e-014 3.43401e-014
rhumerus -405.456 -12.3723 295.017
rradius 12.7052
rwrist 63.5883
rhand -8.66621 739.332
rfingers 7.12502
rthumb 17.2677 710.079
lclavicle -3.4191e-014 3.43401e-014
lhumerus -587.824 154.468 -486.959
lradius 17.1493
lwrist -55.9431
lhand -3.84025 -725.296
lfingers 7.12502
lthumb 21.9074 23.4838
rfemur -504.374 -186.055 557.529
rtibia -4.13472e-014
rfoot -36.7908 -31.2595
rtoes 36.2332
lfemur 15.7898 707.958 -24.6974
ltibia 39.7755
lfoot 138.102 561.512
ltoes 26.314
458
root 19.6145 1.3012 0.618087 -1694.82 260.218 139.532
lowerback 26.6739 -3.36051 1.51858
upperback 6.73662 -4.75504 -2.71878
thorax -7.59535 -2.58544 -2.29221
lowerneck -11.8604 1.49806 -4.27425
upperneck 3.10402 2.51529 0.866891
head 3.02994 1.19683 1.19605
rclavicle -8.74653e-015 -9.00308e-014
rhumerus -405.456 -12.3334 294.981
rradius 12.7072
rwrist 63.8074
rhand -8.64603 739.333
rfingers 7.12502
rthumb 17.2871 710.082
lclavicle -8.74653e-015 -9.00308e-014
lhumerus -587.888 154.445 -487.013
lradius 17.1317
lwrist -56.1375
lhand -3.87997 -725.374
lfingers 7.12502
lthumb 21.8692 23.4101
rfemur -504.292 -185.56 557.015
rtibia -4.6118e-014
rfoot -38.4296 -30.638
rtoes 36.4017
lfemur 15.5755 709.371 -23.6435
ltibia 39.9597
lfoot 138.831 561.46
ltoes 25.8889
459
root 19.6033 1.29619 0.616291 -1695.29 260.214 140.011
lowerback 26.7032 -3.32276 1.4181
upperback 6.72219 -4.7314 -2.70553
thorax -7.61621 -2.57244 -2.22619
lowerneck -11.9526 1.50491 -4.29682
upperneck 3.21135 2.53335 0.868837
head 3.08401 1.20404 1.20512
rclavicle -6.71892e-014 -4.24964e-014
rhumerus -405.41 -12.0257 294.738
rradius 12.7668
rwrist 63.6954
rhand -8.58339 739.311
rfingers 7.12502
rthumb 17.3474 710.065
lclavicle -6.71892e-014 -4.24964e-014
lhumerus -587.895 154.577 -486.873
lradius 17.1699
lwrist -56.1134
lhand -3.88901 -725.362
lfingers 7.12502
lthumb 21.8605 23.4236
rfemur -504.21 -185.076 556.501
rtibia -1.19271e-013
rfoot -40.0674 -30.0043
rtoes 36.4998
lfemur 15.4258 710.633 -22.7
ltibia 40.1086
lfoot 139.396 561.252
ltoes 25.5197
460
root 19.5902 1.29033 0.614461 -1695.75 260.194 140.464
lowerback 26.7592 -3.2931 1.31752
upperback 6.69715 -4.71956 -2.70537
thorax -7.6641 -2.56507 -2.16903
lowerneck -11.9898 1.5068 -4.37403
upperneck 3.28688 2.54717 0.918432
head 3.11583 1.21091 1.23803
rclavicle 2.74323e-014 -6.45118e-014
rhumerus -405.389 -11.7306 294.504
rradius 12.816
rwrist 63.5869
rhand -8.51817 739.256
rfingers 7.12502
rthumb 17.4102 710.015
lclavicle 2.74323e-014 -6.45118e-014
lhumerus -587.941 154.614 -486.862
lradius 17.1681
lwrist -56.2485
lhand -3.89919 -725.39
lfingers 7.12502
lthumb 21.8508 23.3962
rfemur -504.101 -184.588 555.973
rtibia -4.77083e-014
rfoot -41.7736 -29.2523
rtoes 36.5371
lfemur 15.3441 711.728 -21.8903
ltibia 40.2247
lfoot 139.865 560.907
ltoes 25.3541
461
root 19.5765 1.2841 0.613173 -1696.24 260.178 140.946
lowerback 26.8275 -3.25887 1.22145
upperback 6.6738 -4.70099 -2.70779
thorax -7.71642 -2.5545 -2.11905
lowerneck -12.0551 1.51412 -4.37733
upperneck 3.3805 2.56211 0.915753
head 3.16045 1.21691 1.24133
rclavicle -6.75868e-014 1.07934e-013
rhumerus -405.386 -11.6223 294.408
rradius 12.8495
rwrist 63.7023
rhand -8.45673 739.253
rfingers 7.12502
rthumb 17.4693 710.018
lclavicle -6.75868e-014 1.07934e-013
lhumerus -587.99 154.607 -486.879
lradius 17.1684
lwrist -56.4301
lhand -3.88631 -725.41
lfingers 7.12502
lthumb 21.8631 23.3749
rfemur -503.989 -184.103 555.452
rtibia -4.29375e-014
rfoot -43.3912 -28.6691
rtoes 36.4177
lfemur 15.3335 712.693 -21.1904
ltibia 40.2972
lfoot 140.169 560.478
ltoes 25.1276
